<?xml version="1.0" standalone="no"?>
<!DOCTYPE svg PUBLIC "-//W3C//DTD SVG 20010904//EN"
 "http://www.w3.org/TR/2001/REC-SVG-20010904/DTD/svg10.dtd">
<svg version="1.0" xmlns="http://www.w3.org/2000/svg"
 width="16.000000pt" height="16.000000pt" viewBox="0 0 16.000000 16.000000"
 preserveAspectRatio="xMidYMid meet">
<metadata>
Created by potrace 1.11, written by Peter Selinger 2001-2013
</metadata>
<g transform="translate(0.000000,16.000000) scale(0.003125,-0.003125)"
fill="#000000" stroke="none">
<path d="M0 2565 l0 -2555 2560 0 2560 0 0 2555 0 2555 -2560 0 -2560 0 0
-2555z m3780 55 l0 -1650 -1240 0 -1240 0 0 1650 0 1650 1240 0 1240 0 0
-1650z m-2114 -1705 c31 -31 27 -39 -56 -125 l-61 -63 71 -73 c63 -65 70 -75
60 -94 -6 -12 -23 -26 -37 -33 -24 -11 -29 -7 -89 58 -35 39 -63 73 -64 78 0
4 -4 7 -10 7 -5 0 -10 -30 -12 -67 l-3 -68 -39 -3 c-24 -2 -42 2 -47 10 -5 7
-9 92 -9 189 0 196 2 203 62 197 l33 -3 3 -67 c2 -38 5 -68 7 -68 3 0 24 21
47 47 105 117 105 117 144 78z m1131 13 c129 -32 190 -187 121 -309 -84 -150
-315 -121 -364 47 -18 63 -12 111 23 172 26 46 53 67 111 88 46 16 53 17 109
2z m-759 -19 c11 -11 48 -60 83 -109 35 -49 67 -90 71 -90 4 0 9 48 10 108 l3
107 33 3 c60 6 62 -1 62 -197 0 -97 -4 -182 -9 -189 -5 -8 -23 -12 -47 -10
-35 3 -43 10 -109 95 -102 133 -95 132 -95 22 0 -51 -4 -100 -9 -107 -5 -8
-23 -12 -47 -10 l-39 3 -3 189 c-2 145 1 191 10 198 24 14 67 8 86 -13z m1266
-76 c17 -50 34 -94 37 -98 4 -3 21 37 39 89 27 83 35 97 57 102 41 11 55 -6
87 -104 17 -51 33 -92 36 -92 4 0 19 41 35 90 16 50 35 96 41 101 18 15 65 7
78 -14 9 -14 1 -47 -38 -160 -72 -208 -74 -212 -116 -212 l-35 0 -34 98 c-18
54 -37 95 -41 90 -4 -4 -18 -39 -30 -78 -31 -96 -44 -115 -81 -115 -24 0 -32
6 -43 33 -14 33 -116 326 -116 332 0 16 38 36 63 33 29 -3 32 -8 61 -95z"/>
<path d="M1451 3113 l0 -1008 23 80 c43 155 114 275 225 378 61 56 214 157
238 157 25 0 13 16 -29 40 -62 35 -182 154 -226 224 -109 171 -142 425 -79
599 37 102 84 172 173 256 127 119 295 210 479 257 l90 22 -447 1 -448 1 1
-1007z"/>
<path d="M2840 4094 c115 -30 291 -114 381 -182 185 -141 278 -317 279 -527 0
-252 -108 -469 -302 -605 l-68 -48 65 -36 c203 -114 348 -290 409 -496 l25
-85 0 1003 1 1002 -442 -1 -443 -1 95 -24z"/>
<path d="M2484 3620 c-64 -9 -146 -53 -186 -99 -57 -64 -83 -136 -82 -227 0
-102 31 -172 105 -238 108 -97 290 -111 412 -30 48 31 102 107 119 164 18 63
16 166 -5 227 -33 94 -133 184 -222 198 -76 12 -90 13 -141 5z"/>
<path d="M2447 2410 c-105 -27 -197 -104 -244 -205 -25 -53 -28 -72 -28 -160
0 -93 2 -105 33 -167 38 -77 92 -130 171 -167 49 -23 68 -26 161 -26 99 0 110
2 172 33 74 36 132 95 170 170 20 41 23 62 23 157 0 132 -16 176 -95 259 -68
72 -146 107 -249 112 -42 2 -93 -1 -114 -6z"/>
<path d="M1451 1463 l-1 -343 418 1 417 1 -91 23 c-143 38 -265 91 -374 165
-183 124 -282 248 -346 430 l-23 65 0 -342z"/>
<path d="M3610 1748 c-66 -259 -367 -510 -724 -603 l-91 -23 418 -1 417 -1 0
340 c0 187 -1 340 -3 340 -2 0 -9 -23 -17 -52z"/>
<path d="M2693 820 c-89 -54 -47 -201 57 -200 106 1 137 155 40 205 -38 20
-58 19 -97 -5z"/>
</g>
</svg>
